<svg xmlns="http://www.w3.org/2000/svg" id="Layer_1" width="211" height="79" x="0" y="0" enable-background="new 0 0 211 79" version="1.1" viewBox="0 0 211 79" xml:space="preserve"><metadata id="metadata3147"/><linearGradient id="path3873_5_" x1="95.316" x2="95.316" y1="-15.335" y2="22.229" gradientTransform="matrix(1 0 0 -1 -28.706 44.038)" gradientUnits="userSpaceOnUse"><stop id="stop3088" offset="0" stop-color="#286EB5"/><stop id="stop3090" offset="1" stop-color="#4D9CD1"/></linearGradient><linearGradient id="path3873_6_" x1="3.735" x2="3.735" y1="3.176" y2="22.228" gradientTransform="matrix(1 0 0 -1 62.874 44.037)" gradientUnits="userSpaceOnUse"><stop id="stop3093" offset="0" stop-color="#306D98"/><stop id="stop3095" offset="1" stop-color="#3984B8"/></linearGradient><rect id="rect3149" width="14.552" height="14.864" x="59.246" y="26.51" fill="#fff" fill-rule="evenodd"/><rect id="rect3919" width="16.838" height="17.462" x="98.328" y="26.094" fill="#fff" fill-rule="evenodd"/><rect id="rect3921" width="15.119" height="16.809" x="89.713" y="136.43" fill="#fff" fill-rule="evenodd" transform="matrix(.66179 -.74969 .66179 .74969 0 0)"/><path id="path3925" fill="#fff" d="m17.566 30.771 5.7167-6.1325 9.4586 0.20788 4.4695 7.068-2.8064 11.33-8.835 0.72759-5.4049-1.4552-2.3906-6.4443z"/><path id="path3873_1_" fill="url(#path3873_5_)" stroke="url(#path3873_6_)" stroke-linecap="round" stroke-width="1.1" d="m66.654 21.988c-6.572 0-12.044 5.691-12.044 11.865 0 2.777 1.563 6.309 2.693 8.747l9.307 17.871 9.261-17.871c1.131-2.438 2.738-5.792 2.738-8.747 0-6.174-5.382-11.865-11.955-11.865v0zm0 7.154c2.584 0.018 4.678 2.121 4.678 4.711 0 2.588-2.094 4.662-4.678 4.678-2.585-0.016-4.679-2.09-4.679-4.678 0-2.59 2.094-4.693 4.679-4.711z" connector-curvature="0" export-filename="C:\Users\dave.STK\Desktop\git\Leaflet\Leaflet\dist\images\marker-icon@2x.png" export-xdpi="180" export-ydpi="180" nodetypes="zscccszcscsc"/><path id="path3792_1_" fill="none" stroke="#fff" stroke-linecap="round" stroke-opacity=".122" stroke-width="1.1" d="m66.641 23.093c-5.944 0-10.938 5.221-10.938 10.75 0 2.359 1.442 5.832 2.562 8.25 0.005 0.012 0.025 0.021 0.03 0.031l8.313 15.969 8.25-15.969c0.006-0.012 0.025-0.02 0.031-0.031 1.135-2.448 2.625-5.706 2.625-8.25 0.002-5.537-4.93-10.75-10.873-10.75v0zm0 4.969c3.167 0.021 5.781 2.602 5.781 5.781 0 3.182-2.613 5.762-5.781 5.781-3.168-0.02-5.75-2.609-5.75-5.781s2.582-5.76 5.75-5.781z" export-filename="C:\Users\dave.STK\Desktop\git\Leaflet\Leaflet\dist\images\marker-icon@2x.png" export-xdpi="180" export-ydpi="180" original="M 416.53125 503.625 C 409.95868 503.625 404.5 509.29393 404.5 515.46875 C 404.5 518.24668 406.05726 521.78106 407.1875 524.21875 L 416.5 542.09375 L 425.75 524.21875 C 426.88024 521.78106 428.5 518.42346 428.5 515.46875 C 428.5 509.29393 423.10382 503.625 416.53125 503.625 z M 416.53125 510.78125 C 419.11574 510.79795 421.21875 512.88037 421.21875 515.46875 C 421.21875 518.05715 419.11574 520.13969 416.53125 520.15625 C 413.94676 520.13975 411.875 518.05715 411.875 515.46875 C 411.875 512.88038 413.94676 510.79802 416.53125 510.78125 z" radius="-1.093" type="inkscape:offset"/><g id="g3099" stroke-linecap="round" stroke-width="1.1"><linearGradient id="path3873_7_" x1="56.017" x2="56.017" y1="-15.335" y2="22.229" gradientTransform="matrix(1 0 0 -1 -28.706 44.038)" gradientUnits="userSpaceOnUse"><stop id="stop3102" offset="0" stop-color="#C72118"/><stop id="stop3104" offset="1" stop-color="#D2534F"/></linearGradient><linearGradient id="path3873_8_" x1="-35.564" x2="-35.564" y1="3.176" y2="22.228" gradientTransform="matrix(1 0 0 -1 62.874 44.037)" gradientUnits="userSpaceOnUse"><stop id="stop3107" offset="0" stop-color="#983A38"/><stop id="stop3109" offset="1" stop-color="#B83D3B"/></linearGradient><path id="path3873_3_" fill="url(#path3873_7_)" fill-rule="evenodd" stroke="url(#path3873_8_)" d="m27.355 21.988c-6.572 0-12.044 5.691-12.044 11.865 0 2.777 1.563 6.309 2.693 8.747l9.307 17.871 9.262-17.871c1.13-2.438 2.737-5.792 2.737-8.747 0.001-6.174-5.382-11.865-11.955-11.865zm2.875 12.86l3.547-3.547c0.781-0.781 0.781-2.047 0-2.828-0.782-0.781-2.049-0.781-2.829 0l-3.547 3.547-3.547-3.547c-0.779-0.781-2.047-0.781-2.828 0s-0.781 2.047 0 2.828l3.547 3.547-3.547 3.546c-0.781 0.78-0.781 2.048 0 2.828 0.391 0.391 0.902 0.586 1.414 0.586s1.024-0.195 1.414-0.586l3.547-3.546 3.547 3.546c0.39 0.391 0.902 0.586 1.414 0.586s1.023-0.195 1.415-0.586c0.781-0.78 0.781-2.048 0-2.828l-3.547-3.546z" clip-rule="evenodd" connector-curvature="0" export-filename="C:\Users\dave.STK\Desktop\git\Leaflet\Leaflet\dist\images\marker-icon@2x.png" export-xdpi="180" export-ydpi="180" nodetypes="zscccszcscsc"/><path id="path3792_3_" fill="none" stroke="#fff" stroke-opacity=".122" d="m27.343 23.093c-5.944 0-10.938 5.221-10.938 10.75 0 2.359 1.442 5.832 2.562 8.25 0.005 0.012 0.025 0.021 0.03 0.031l8.313 15.969 8.25-15.969c0.005-0.012 0.025-0.02 0.03-0.031 1.136-2.448 2.625-5.706 2.625-8.25 0.002-5.537-4.929-10.75-10.872-10.75zm5.02 3.706c-0.829 0-1.607 0.323-2.193 0.909l-2.768 2.769-2.769-2.77c-0.585-0.585-1.363-0.908-2.192-0.908-0.828 0-1.607 0.323-2.191 0.909-0.586 0.585-0.908 1.363-0.908 2.191s0.322 1.606 0.908 2.192l2.769 2.768-2.769 2.77c-0.586 0.584-0.908 1.363-0.908 2.191s0.322 1.607 0.908 2.191c0.585 0.586 1.363 0.908 2.191 0.908 0.829 0 1.607-0.322 2.193-0.908l2.768-2.767 2.769 2.767c0.585 0.586 1.363 0.908 2.192 0.908 0.828 0 1.607-0.322 2.191-0.908 0.586-0.583 0.908-1.363 0.908-2.191s-0.322-1.607-0.908-2.191l-2.769-2.77 2.769-2.768c0.586-0.586 0.908-1.364 0.908-2.192s-0.322-1.606-0.908-2.192c-0.583-0.584-1.363-0.908-2.191-0.908z" export-filename="C:\Users\dave.STK\Desktop\git\Leaflet\Leaflet\dist\images\marker-icon@2x.png" export-xdpi="180" export-ydpi="180" original="M 416.53125 503.625 C 409.95868 503.625 404.5 509.29393 404.5 515.46875 C 404.5 518.24668 406.05726 521.78106 407.1875 524.21875 L 416.5 542.09375 L 425.75 524.21875 C 426.88024 521.78106 428.5 518.42346 428.5 515.46875 C 428.5 509.29393 423.10382 503.625 416.53125 503.625 z M 416.53125 510.78125 C 419.11574 510.79795 421.21875 512.88037 421.21875 515.46875 C 421.21875 518.05715 419.11574 520.13969 416.53125 520.15625 C 413.94676 520.13975 411.875 518.05715 411.875 515.46875 C 411.875 512.88038 413.94676 510.79802 416.53125 510.78125 z" radius="-1.093" type="inkscape:offset"/></g><g id="g3113" stroke-linecap="round" stroke-width="1.1"><linearGradient id="path3873_9_" x1="135.47" x2="135.47" y1="-15.335" y2="22.229" gradientTransform="matrix(1 0 0 -1 -28.706 44.038)" gradientUnits="userSpaceOnUse"><stop id="stop3116" offset="0" stop-color="#7CB928"/><stop id="stop3118" offset="1" stop-color="#A2C857"/></linearGradient><linearGradient id="path3873_10_" x1="43.886" x2="43.886" y1="3.176" y2="22.228" gradientTransform="matrix(1 0 0 -1 62.874 44.037)" gradientUnits="userSpaceOnUse"><stop id="stop3121" offset="0" stop-color="#74963A"/><stop id="stop3123" offset="1" stop-color="#89B63E"/></linearGradient><path id="path3873_4_" fill="url(#path3873_9_)" fill-rule="evenodd" stroke="url(#path3873_10_)" d="m106.8 21.988c-6.572 0-12.045 5.691-12.045 11.865 0 2.777 1.564 6.309 2.693 8.747l9.307 17.871 9.262-17.871c1.131-2.438 2.738-5.792 2.738-8.747 0-6.174-5.38-11.865-11.96-11.865zm-1.18 20.069c-0.521 0-1.025-0.215-1.389-0.604-0.025-0.027-2.609-2.793-3.945-3.996-0.779-0.703-0.841-1.904-0.139-2.684 0.703-0.781 1.904-0.842 2.684-0.139 0.64 0.576 1.501 1.438 2.275 2.232 1.244-2.398 3.327-6 5.765-8.545 0.726-0.758 1.929-0.783 2.687-0.057 0.758 0.725 0.783 1.928 0.058 2.686-3.412 3.562-6.228 9.906-6.255 9.971-0.258 0.584-0.792 1-1.422 1.108-0.11 0.018-0.22 0.028-0.32 0.028z" clip-rule="evenodd" connector-curvature="0" export-filename="C:\Users\dave.STK\Desktop\git\Leaflet\Leaflet\dist\images\marker-icon@2x.png" export-xdpi="180" export-ydpi="180" nodetypes="zscccszcscsc"/><path id="path3792_6_" fill="none" stroke="#fff" stroke-opacity=".122" d="m106.79 23.093c-5.943 0-10.938 5.221-10.938 10.75 0 2.359 1.443 5.832 2.562 8.25 0.006 0.012 0.025 0.021 0.031 0.031l8.312 15.969 8.25-15.969c0.006-0.012 0.025-0.02 0.031-0.031 1.135-2.448 2.625-5.706 2.625-8.25 0.01-5.537-4.93-10.75-10.87-10.75zm5.45 3.543c-0.814 0-1.604 0.338-2.166 0.926-2.09 2.18-3.914 5.074-5.236 7.471-0.502-0.498-0.928-0.904-1.273-1.217-0.553-0.498-1.266-0.771-2.009-0.771-0.849 0-1.661 0.361-2.228 0.992-1.107 1.227-1.01 3.129 0.219 4.236 1.288 1.16 3.85 3.901 3.874 3.926 0.569 0.609 1.368 0.957 2.196 0.957 0.166 0 0.334-0.014 0.498-0.041 1.002-0.172 1.841-0.824 2.248-1.75 0.029-0.064 2.805-6.271 6.043-9.652 0.555-0.578 0.851-1.34 0.834-2.141-0.018-0.801-0.346-1.547-0.925-2.102-0.57-0.537-1.3-0.834-2.08-0.834z" export-filename="C:\Users\dave.STK\Desktop\git\Leaflet\Leaflet\dist\images\marker-icon@2x.png" export-xdpi="180" export-ydpi="180" original="M 416.53125 503.625 C 409.95868 503.625 404.5 509.29393 404.5 515.46875 C 404.5 518.24668 406.05726 521.78106 407.1875 524.21875 L 416.5 542.09375 L 425.75 524.21875 C 426.88024 521.78106 428.5 518.42346 428.5 515.46875 C 428.5 509.29393 423.10382 503.625 416.53125 503.625 z M 416.53125 510.78125 C 419.11574 510.79795 421.21875 512.88037 421.21875 515.46875 C 421.21875 518.05715 419.11574 520.13969 416.53125 520.15625 C 413.94676 520.13975 411.875 518.05715 411.875 515.46875 C 411.875 512.88038 413.94676 510.79802 416.53125 510.78125 z" radius="-1.093" type="inkscape:offset"/></g><rect id="rect3771_1_" width="25" height="41.001" x="14.811" y="20.958" fill="#fff" fill-opacity="0" display="none" export-filename="C:\Users\dave.STK\Desktop\git\Leaflet\Leaflet\dist\images\marker-icon@2x.png" export-xdpi="180" export-ydpi="180"/><linearGradient id="path3873_11_" x1="188.85" x2="188.85" y1="-15.335" y2="22.229" gradientTransform="matrix(1 0 0 -1 -28.706 44.038)" gradientUnits="userSpaceOnUse"><stop id="stop3129" offset="0" stop-color="#286EB5"/><stop id="stop3131" offset="1" stop-color="#4D9CD1"/></linearGradient><linearGradient id="path3873_12_" x1="97.272" x2="97.272" y1="3.176" y2="22.228" gradientTransform="matrix(1 0 0 -1 62.874 44.037)" gradientUnits="userSpaceOnUse"><stop id="stop3134" offset="0" stop-color="#306D98"/><stop id="stop3136" offset="1" stop-color="#3984B8"/></linearGradient><path id="path3873_2_" fill="url(#path3873_11_)" fill-rule="evenodd" stroke="url(#path3873_12_)" stroke-linecap="round" stroke-width="1.1" d="m160.19 21.988c-6.572 0-12.044 5.691-12.044 11.865 0 2.777 1.563 6.309 2.693 8.747l9.307 17.871 9.262-17.871c1.13-2.438 2.737-5.792 2.737-8.747-0.01-6.174-5.39-11.865-11.96-11.865v0zm2.05 10.861v-4.816c0-1.105-0.895-2-2-2-1.104 0-2.001 0.897-2 2v4.815h-4.815c-1.104-0.001-2 0.896-2 2s0.895 2 2 2h4.815v4.815c-0.001 1.104 0.896 2 2 2 0.552 0 1.052-0.224 1.414-0.586 0.361-0.361 0.586-0.861 0.586-1.414v-4.815h4.815c0.551 0 1.052-0.224 1.414-0.586 0.361-0.362 0.585-0.862 0.586-1.415 0.001-1.104-0.896-2.001-2-2-0.008 0.0044-4.815 0.002-4.815 0.002z" clip-rule="evenodd" connector-curvature="0" export-filename="C:\Users\dave.STK\Desktop\git\Leaflet\Leaflet\dist\images\marker-icon@2x.png" export-xdpi="180" export-ydpi="180" nodetypes="zscccszcscsc"/><path id="path3792_2_" fill="none" stroke="#fff" stroke-linecap="round" stroke-opacity=".122" stroke-width="1.1" d="m160.18 23.093c-5.944 0-10.938 5.221-10.938 10.75 0 2.359 1.442 5.832 2.562 8.25 0.005 0.012 0.025 0.021 0.03 0.031l8.313 15.969 8.25-15.969c0.005-0.012 0.025-0.02 0.03-0.031 1.136-2.448 2.625-5.706 2.625-8.25 0.01-5.537-4.92-10.75-10.86-10.75v0zm-2.13 2.757c-0.586 0.586-0.908 1.365-0.908 2.194l0.001 3.714-3.716-0.001c-0.827 0-1.606 0.322-2.192 0.908-0.586 0.585-0.908 1.365-0.906 2.193-0.001 0.828 0.321 1.606 0.906 2.191 0.586 0.585 1.365 0.908 2.193 0.908l3.714-0.001 0.001 3.716c-0.001 0.826 0.321 1.605 0.907 2.191s1.365 0.908 2.191 0.907c0.828 0.001 1.606-0.322 2.191-0.907 0.587-0.587 0.909-1.365 0.909-2.193l0.001-3.713 3.714-0.001c0.827 0 1.605-0.322 2.191-0.908s0.909-1.365 0.908-2.192c0.002-0.827-0.322-1.606-0.907-2.191s-1.364-0.909-2.191-0.907h-3.717l0.002-3.715c0-0.828-0.323-1.607-0.908-2.192-0.586-0.585-1.364-0.908-2.193-0.908-0.8-0.002-1.58 0.321-2.17 0.907v0z" export-filename="C:\Users\dave.STK\Desktop\git\Leaflet\Leaflet\dist\images\marker-icon@2x.png" export-xdpi="180" export-ydpi="180" original="M 416.53125 503.625 C 409.95868 503.625 404.5 509.29393 404.5 515.46875 C 404.5 518.24668 406.05726 521.78106 407.1875 524.21875 L 416.5 542.09375 L 425.75 524.21875 C 426.88024 521.78106 428.5 518.42346 428.5 515.46875 C 428.5 509.29393 423.10382 503.625 416.53125 503.625 z M 416.53125 510.78125 C 419.11574 510.79795 421.21875 512.88037 421.21875 515.46875 C 421.21875 518.05715 419.11574 520.13969 416.53125 520.15625 C 413.94676 520.13975 411.875 518.05715 411.875 515.46875 C 411.875 512.88038 413.94676 510.79802 416.53125 510.78125 z" radius="-1.093" type="inkscape:offset"/><rect id="rect3771_7_" width="25" height="41.001" x="147.64" y="20.958" fill="#fff" fill-opacity="0" display="none" export-filename="C:\Users\dave.STK\Desktop\git\Leaflet\Leaflet\dist\images\marker-icon@2x.png" export-xdpi="180" export-ydpi="180"/><rect id="rect3771_2_" width="25" height="41.001" x="54.109" y="20.958" fill="#fff" fill-opacity="0" display="none" export-filename="C:\Users\dave.STK\Desktop\git\Leaflet\Leaflet\dist\images\marker-icon@2x.png" export-xdpi="180" export-ydpi="180"/><rect id="rect3771_5_" width="25" height="41.001" x="94.26" y="20.958" fill="#fff" fill-opacity="0" display="none" export-filename="C:\Users\dave.STK\Desktop\git\Leaflet\Leaflet\dist\images\marker-icon@2x.png" export-xdpi="180" export-ydpi="180"/><rect id="rect3923" width="16.861" height="18.745" x="4.544" y="8.749" fill="#fff" fill-rule="evenodd" opacity=".5" transform="matrix(.66351 -.74817 .66351 .74817 0 0)"/></svg>