<svg xmlns="http://www.w3.org/2000/svg" xmlns:svg="http://www.w3.org/2000/svg" xmlns:xlink="http://www.w3.org/1999/xlink" id="svg4136" width="580" height="270" version="1.1"><defs id="defs4138"><linearGradient id="linearGradient9009"><stop style="stop-color:#fff;stop-opacity:1" id="stop9011" offset="0"/><stop style="stop-color:#fff;stop-opacity:0" id="stop9013" offset="1"/></linearGradient><linearGradient id="linearGradient8284"><stop id="stop8286" offset="0" style="stop-color:#b2dbea;stop-opacity:1"/><stop id="stop8288" offset="1" style="stop-color:#93b8e0;stop-opacity:0"/></linearGradient><linearGradient id="linearGradient7767"><stop style="stop-color:#b2dbea;stop-opacity:1" id="stop7769" offset="0"/><stop style="stop-color:#7092ff;stop-opacity:1" id="stop7771" offset="1"/></linearGradient><linearGradient id="linearGradient7009"><stop style="stop-color:#f4f4ff;stop-opacity:1" id="stop7011" offset="0"/><stop style="stop-color:#f4f4ff;stop-opacity:0" id="stop7013" offset="1"/></linearGradient><clipPath id="clipPath7691" clipPathUnits="userSpaceOnUse"><path id="path7693" d="M 1126,118.99999 A 110,110 0 0 1 1346,119" transform="matrix(1.4545455,0,0,1.4545455,-622.81822,-83.09091)" style="color:#000;fill:#c5c5d7;fill-opacity:1;fill-rule:nonzero;stroke:none;stroke-width:4;marker:none;visibility:visible;display:inline;overflow:visible;enable-background:accumulate"/></clipPath><clipPath id="clipPath7755" clipPathUnits="userSpaceOnUse"><path style="color:#000;fill:#adadc6;fill-opacity:1;fill-rule:nonzero;stroke:none;stroke-width:4;marker:none;visibility:visible;display:inline;overflow:visible;enable-background:accumulate" id="path7757" d="m 1230.4688,792.26843 c 13.3096,49.6722 -20.4537,112.82556 -47.6876,150.09372 l 152.2188,0 c 0,-68.85715 -43.5157,-127.53233 -104.5312,-150.09372 z"/></clipPath><filter id="filter7759" color-interpolation-filters="sRGB"><feGaussianBlur id="feGaussianBlur7761" stdDeviation="5.813"/></filter><filter id="filter7763" width="1.207" height="1.179" x="-.103" y="-.09" color-interpolation-filters="sRGB"><feGaussianBlur id="feGaussianBlur7765" stdDeviation="5.383"/></filter><clipPath id="clipPath8573" clipPathUnits="userSpaceOnUse"><path style="color:#000;fill:#000;fill-opacity:1;fill-rule:nonzero;stroke:none;stroke-width:4;marker:none;visibility:visible;display:inline;overflow:visible;enable-background:accumulate" id="path8575" d="M 1126,118.99999 A 110,110 0 0 1 1346,119" transform="matrix(1.4545455,0,0,1.4545455,-611.81823,-534.09093)"/></clipPath><clipPath id="clipPath8675" clipPathUnits="userSpaceOnUse"><path style="font-size:medium;font-style:normal;font-variant:normal;font-weight:400;font-stretch:normal;text-indent:0;text-align:start;text-decoration:none;line-height:normal;letter-spacing:normal;word-spacing:normal;text-transform:none;direction:ltr;block-progression:tb;writing-mode:lr-tb;text-anchor:start;baseline-shift:baseline;color:#000;fill:url(#linearGradient8679);fill-opacity:1;fill-rule:nonzero;stroke:none;stroke-width:5.81818199;marker:none;visibility:visible;display:inline;overflow:visible;enable-background:accumulate;font-family:Sans;-inkscape-font-specification:Sans" id="path8677" d="m 1190.4062,-388.15627 a 12.0012,12.0012 0 0 0 -10.0312,4.96875 c -23.0888,31.04416 -73.5,61.84375 -73.5,61.84375 a 12.007739,12.007739 0 0 0 -0.8125,0.5625 12.007739,12.007739 0 0 0 -0.1875,0.125 l -13.875,7.90625 a 4.0175701,4.0175701 0 1 0 4,6.96875 l 5.2188,-2.96875 a 12.007739,12.007739 0 0 0 17.9062,8.0625 c 0,0 52.3016,-30.24185 80.5,-68.15625 a 12.0012,12.0012 0 0 0 -9.2188,-19.3125 z"/></clipPath><linearGradient id="linearGradient8679" x1="1086" x2="1125.798" y1="139" y2="99.202" gradientTransform="translate(11.000003,-451.00002)" gradientUnits="userSpaceOnUse" xlink:href="#linearGradient8284"/><clipPath id="clipPath8987" clipPathUnits="userSpaceOnUse"><flowRoot id="flowRoot8989" clip-path="none" transform="translate(-173.25,451.00002)" xml:space="preserve" style="font-size:30px;font-style:normal;font-variant:normal;font-weight:700;font-stretch:normal;text-indent:0;text-align:start;text-decoration:none;line-height:125%;letter-spacing:0;word-spacing:0;text-transform:none;direction:ltr;block-progression:tb;writing-mode:lr-tb;text-anchor:start;baseline-shift:baseline;opacity:.25;color:#000;fill:#fff;fill-opacity:1;fill-rule:nonzero;stroke:none;stroke-width:4;marker:none;visibility:visible;display:inline;overflow:visible;enable-background:accumulate;font-family:Menlo;-inkscape-font-specification:Menlo Bold"><flowRegion id="flowRegion8991"><rect id="rect8993" width="580" height="303" x="1021" y="-529" style="font-style:normal;font-variant:normal;font-weight:700;font-stretch:normal;fill:#fff;stroke:none;font-family:Menlo;-inkscape-font-specification:Menlo Bold"/></flowRegion><flowPara id="flowPara8995">101010101010100011</flowPara><flowPara id="flowPara8997">100010101010011010</flowPara><flowPara id="flowPara8999">101010101001010110</flowPara><flowPara id="flowPara9001">010111010000011010</flowPara><flowPara id="flowPara9003">000101010000110001</flowPara><flowPara id="flowPara9005">101010110010101101</flowPara><flowPara id="flowPara9007">101010111010101011</flowPara></flowRoot></clipPath><linearGradient id="linearGradient9015" x1="1184" x2="1184" y1="-405" y2="-533.035" gradientUnits="userSpaceOnUse" xlink:href="#linearGradient9009"/><linearGradient id="linearGradient9023" x1="1184" x2="1184" y1="-405" y2="-533.035" gradientUnits="userSpaceOnUse" xlink:href="#linearGradient9009"/><linearGradient id="linearGradient9025" x1="1184" x2="1184" y1="-405" y2="-533.035" gradientUnits="userSpaceOnUse" xlink:href="#linearGradient9009"/><linearGradient id="linearGradient9027" x1="1184" x2="1184" y1="-405" y2="-533.035" gradientUnits="userSpaceOnUse" xlink:href="#linearGradient9009"/><linearGradient id="linearGradient9029" x1="1184" x2="1184" y1="-405" y2="-533.035" gradientUnits="userSpaceOnUse" xlink:href="#linearGradient9009"/><linearGradient id="linearGradient9031" x1="1184" x2="1184" y1="-405" y2="-533.035" gradientUnits="userSpaceOnUse" xlink:href="#linearGradient9009"/><linearGradient id="linearGradient9033" x1="1184" x2="1184" y1="-405" y2="-533.035" gradientUnits="userSpaceOnUse" xlink:href="#linearGradient9009"/><linearGradient id="linearGradient9035" x1="1184" x2="1184" y1="-405" y2="-533.035" gradientUnits="userSpaceOnUse" xlink:href="#linearGradient9009"/><linearGradient id="linearGradient7878-9" x1="1097" x2="1097" y1="942.362" y2="802.63" gradientTransform="translate(-50,0)" gradientUnits="userSpaceOnUse" xlink:href="#linearGradient7872-8"/><linearGradient id="linearGradient7872-8"><stop style="stop-color:#cbeea7;stop-opacity:1" id="stop7874-3" offset="0"/><stop style="stop-color:#cee8c1;stop-opacity:1" id="stop7876-8" offset="1"/></linearGradient><linearGradient id="linearGradient7878-1" x1="1097" x2="1097" y1="942.362" y2="802.63" gradientTransform="translate(-870,-742.36218)" gradientUnits="userSpaceOnUse" xlink:href="#linearGradient7872-80"/><linearGradient id="linearGradient7872-80"><stop style="stop-color:#cbeea7;stop-opacity:1" id="stop7874-6" offset="0"/><stop style="stop-color:#cee8c1;stop-opacity:1" id="stop7876-6" offset="1"/></linearGradient><linearGradient id="linearGradient7878-9-6" x1="1097" x2="1097" y1="942.362" y2="802.63" gradientTransform="translate(-870,-742.36218)" gradientUnits="userSpaceOnUse" xlink:href="#linearGradient7872-8-5"/><linearGradient id="linearGradient7872-8-5"><stop style="stop-color:#cbeea7;stop-opacity:1" id="stop7874-3-7" offset="0"/><stop style="stop-color:#cee8c1;stop-opacity:1" id="stop7876-8-7" offset="1"/></linearGradient><linearGradient id="linearGradient9564" x1="1177.205" x2="1151.086" y1="110.201" y2="155.439" gradientTransform="translate(-50,852.36218)" gradientUnits="userSpaceOnUse" xlink:href="#linearGradient7009"/><linearGradient id="linearGradient9566" x1="1200" x2="1200" y1="-30" y2="90" gradientTransform="translate(-50,852.36218)" gradientUnits="userSpaceOnUse" xlink:href="#linearGradient7767"/><linearGradient id="linearGradient9568" x1="1086" x2="1125.798" y1="139" y2="99.202" gradientTransform="translate(-50,852.36218)" gradientUnits="userSpaceOnUse" xlink:href="#linearGradient8284"/><filter id="filter13004" width="1.314" height="1.627" x="-.157" y="-.314"><feGaussianBlur id="feGaussianBlur13006" stdDeviation="1.306"/></filter><linearGradient id="linearGradient7878-9-9" x1="1097" x2="1097" y1="942.362" y2="802.63" gradientTransform="translate(-870,-742.36218)" gradientUnits="userSpaceOnUse" xlink:href="#linearGradient7872-8-9"/><linearGradient id="linearGradient7872-8-9"><stop style="stop-color:#cbeea7;stop-opacity:1" id="stop7874-3-4" offset="0"/><stop style="stop-color:#cee8c1;stop-opacity:1" id="stop7876-8-3" offset="1"/></linearGradient><linearGradient id="linearGradient7872-8-2"><stop style="stop-color:#cbeea7;stop-opacity:1" id="stop7874-3-3" offset="0"/><stop style="stop-color:#cee8c1;stop-opacity:1" id="stop7876-8-6" offset="1"/></linearGradient><linearGradient id="linearGradient13058" x1="1097" x2="1097" y1="942.362" y2="802.63" gradientTransform="translate(-1205,-787.20593)" gradientUnits="userSpaceOnUse" xlink:href="#linearGradient7872-8-2"/><clipPath id="clipPath7755-6" clipPathUnits="userSpaceOnUse"><path style="color:#000;fill:#adadc6;fill-opacity:1;fill-rule:nonzero;stroke:none;stroke-width:4;marker:none;visibility:visible;display:inline;overflow:visible;enable-background:accumulate" id="path7757-0" d="m 1230.4688,792.26843 c 13.3096,49.6722 -20.4537,112.82556 -47.6876,150.09372 l 152.2188,0 c 0,-68.85715 -43.5157,-127.53233 -104.5312,-150.09372 z"/></clipPath><filter id="filter7763-9" width="1.207" height="1.179" x="-.103" y="-.09" color-interpolation-filters="sRGB"><feGaussianBlur id="feGaussianBlur7765-8" stdDeviation="5.383"/></filter><clipPath id="clipPath7691-1" clipPathUnits="userSpaceOnUse"><path id="path7693-7" d="M 1126,118.99999 A 110,110 0 0 1 1346,119" transform="matrix(1.4545455,0,0,1.4545455,-622.81822,-83.09091)" style="color:#000;fill:#c5c5d7;fill-opacity:1;fill-rule:nonzero;stroke:none;stroke-width:4;marker:none;visibility:visible;display:inline;overflow:visible;enable-background:accumulate"/></clipPath><filter id="filter7759-4" color-interpolation-filters="sRGB"><feGaussianBlur id="feGaussianBlur7761-1" stdDeviation="5.813"/></filter><linearGradient id="linearGradient9015-1" x1="1184" x2="1184" y1="-405" y2="-533.035" gradientUnits="userSpaceOnUse" xlink:href="#linearGradient9009-1"/><linearGradient id="linearGradient9009-1"><stop style="stop-color:#fff;stop-opacity:1" id="stop9011-6" offset="0"/><stop style="stop-color:#fff;stop-opacity:0" id="stop9013-9" offset="1"/></linearGradient><clipPath id="clipPath8573-0" clipPathUnits="userSpaceOnUse"><path style="color:#000;fill:#000;fill-opacity:1;fill-rule:nonzero;stroke:none;stroke-width:4;marker:none;visibility:visible;display:inline;overflow:visible;enable-background:accumulate" id="path8575-7" d="M 1126,118.99999 A 110,110 0 0 1 1346,119" transform="matrix(1.4545455,0,0,1.4545455,-611.81823,-534.09093)"/></clipPath><linearGradient id="linearGradient9023-5" x1="1184" x2="1184" y1="-405" y2="-533.035" gradientUnits="userSpaceOnUse" xlink:href="#linearGradient9009-1"/><linearGradient id="linearGradient9025-9" x1="1184" x2="1184" y1="-405" y2="-533.035" gradientUnits="userSpaceOnUse" xlink:href="#linearGradient9009-1"/><linearGradient id="linearGradient9027-7" x1="1184" x2="1184" y1="-405" y2="-533.035" gradientUnits="userSpaceOnUse" xlink:href="#linearGradient9009-1"/><linearGradient id="linearGradient9029-0" x1="1184" x2="1184" y1="-405" y2="-533.035" gradientUnits="userSpaceOnUse" xlink:href="#linearGradient9009-1"/><linearGradient id="linearGradient9031-3" x1="1184" x2="1184" y1="-405" y2="-533.035" gradientUnits="userSpaceOnUse" xlink:href="#linearGradient9009-1"/><linearGradient id="linearGradient9033-7" x1="1184" x2="1184" y1="-405" y2="-533.035" gradientUnits="userSpaceOnUse" xlink:href="#linearGradient9009-1"/><linearGradient id="linearGradient9035-5" x1="1184" x2="1184" y1="-405" y2="-533.035" gradientUnits="userSpaceOnUse" xlink:href="#linearGradient9009-1"/><linearGradient id="linearGradient7773-2" x1="1225.688" x2="1225.688" y1="36.5" y2="119" gradientUnits="userSpaceOnUse" xlink:href="#linearGradient7767-4"/><linearGradient id="linearGradient7767-4"><stop style="stop-color:#b2dbea;stop-opacity:1" id="stop7769-5" offset="0"/><stop style="stop-color:#7092ff;stop-opacity:1" id="stop7771-9" offset="1"/></linearGradient><linearGradient id="linearGradient7767-4-1"><stop style="stop-color:#b2dbea;stop-opacity:1" id="stop7769-5-1" offset="0"/><stop style="stop-color:#7092ff;stop-opacity:1" id="stop7771-9-8" offset="1"/></linearGradient><linearGradient id="linearGradient9015-1-5" x1="1184" x2="1184" y1="-405" y2="-533.035" gradientUnits="userSpaceOnUse" xlink:href="#linearGradient9009-1-9"/><linearGradient id="linearGradient9009-1-9"><stop style="stop-color:#fff;stop-opacity:1" id="stop9011-6-0" offset="0"/><stop style="stop-color:#fff;stop-opacity:0" id="stop9013-9-3" offset="1"/></linearGradient><clipPath id="clipPath8573-0-1" clipPathUnits="userSpaceOnUse"><path style="color:#000;fill:#000;fill-opacity:1;fill-rule:nonzero;stroke:none;stroke-width:4;marker:none;visibility:visible;display:inline;overflow:visible;enable-background:accumulate" id="path8575-7-3" d="M 1126,118.99999 A 110,110 0 0 1 1346,119" transform="matrix(1.4545455,0,0,1.4545455,-611.81823,-534.09093)"/></clipPath><linearGradient id="linearGradient9023-5-2" x1="1184" x2="1184" y1="-405" y2="-533.035" gradientUnits="userSpaceOnUse" xlink:href="#linearGradient9009-1-9"/><linearGradient id="linearGradient9025-9-4" x1="1184" x2="1184" y1="-405" y2="-533.035" gradientUnits="userSpaceOnUse" xlink:href="#linearGradient9009-1-9"/><linearGradient id="linearGradient9027-7-3" x1="1184" x2="1184" y1="-405" y2="-533.035" gradientUnits="userSpaceOnUse" xlink:href="#linearGradient9009-1-9"/><linearGradient id="linearGradient9029-0-0" x1="1184" x2="1184" y1="-405" y2="-533.035" gradientUnits="userSpaceOnUse" xlink:href="#linearGradient9009-1-9"/><linearGradient id="linearGradient9031-3-0" x1="1184" x2="1184" y1="-405" y2="-533.035" gradientUnits="userSpaceOnUse" xlink:href="#linearGradient9009-1-9"/><linearGradient id="linearGradient9033-7-0" x1="1184" x2="1184" y1="-405" y2="-533.035" gradientUnits="userSpaceOnUse" xlink:href="#linearGradient9009-1-9"/><linearGradient id="linearGradient9035-5-1" x1="1184" x2="1184" y1="-405" y2="-533.035" gradientUnits="userSpaceOnUse" xlink:href="#linearGradient9009-1-9"/><clipPath id="clipPath7691-1-5" clipPathUnits="userSpaceOnUse"><path id="path7693-7-8" d="M 1126,118.99999 A 110,110 0 0 1 1346,119" transform="matrix(1.4545455,0,0,1.4545455,-622.81822,-83.09091)" style="color:#000;fill:#c5c5d7;fill-opacity:1;fill-rule:nonzero;stroke:none;stroke-width:4;marker:none;visibility:visible;display:inline;overflow:visible;enable-background:accumulate"/></clipPath><filter id="filter7759-4-0" color-interpolation-filters="sRGB"><feGaussianBlur id="feGaussianBlur7761-1-2" stdDeviation="5.813"/></filter><clipPath id="clipPath7755-6-7" clipPathUnits="userSpaceOnUse"><path style="color:#000;fill:#adadc6;fill-opacity:1;fill-rule:nonzero;stroke:none;stroke-width:4;marker:none;visibility:visible;display:inline;overflow:visible;enable-background:accumulate" id="path7757-0-7" d="m 1230.4688,792.26843 c 13.3096,49.6722 -20.4537,112.82556 -47.6876,150.09372 l 152.2188,0 c 0,-68.85715 -43.5157,-127.53233 -104.5312,-150.09372 z"/></clipPath><filter id="filter7763-9-4" width="1.207" height="1.179" x="-.103" y="-.09" color-interpolation-filters="sRGB"><feGaussianBlur id="feGaussianBlur7765-8-0" stdDeviation="5.383"/></filter><linearGradient id="linearGradient7773-0" x1="1225.688" x2="1225.688" y1="36.5" y2="119" gradientUnits="userSpaceOnUse" xlink:href="#linearGradient7767-2"/><linearGradient id="linearGradient7767-2"><stop style="stop-color:#b2dbea;stop-opacity:1" id="stop7769-1" offset="0"/><stop style="stop-color:#7092ff;stop-opacity:1" id="stop7771-5" offset="1"/></linearGradient><linearGradient id="linearGradient9015-4" x1="1184" x2="1184" y1="-405" y2="-533.035" gradientUnits="userSpaceOnUse" xlink:href="#linearGradient9009-4"/><linearGradient id="linearGradient9009-4"><stop style="stop-color:#fff;stop-opacity:1" id="stop9011-5" offset="0"/><stop style="stop-color:#fff;stop-opacity:0" id="stop9013-7" offset="1"/></linearGradient><clipPath id="clipPath8573-8" clipPathUnits="userSpaceOnUse"><path style="color:#000;fill:#000;fill-opacity:1;fill-rule:nonzero;stroke:none;stroke-width:4;marker:none;visibility:visible;display:inline;overflow:visible;enable-background:accumulate" id="path8575-5" d="M 1126,118.99999 A 110,110 0 0 1 1346,119" transform="matrix(1.4545455,0,0,1.4545455,-611.81823,-534.09093)"/></clipPath><linearGradient id="linearGradient9021" x1="1184" x2="1184" y1="-405" y2="-533.035" gradientUnits="userSpaceOnUse" xlink:href="#linearGradient9009-4"/><linearGradient id="linearGradient9019" x1="1184" x2="1184" y1="-405" y2="-533.035" gradientUnits="userSpaceOnUse" xlink:href="#linearGradient9009-4"/><linearGradient id="linearGradient9023-3" x1="1184" x2="1184" y1="-405" y2="-533.035" gradientUnits="userSpaceOnUse" xlink:href="#linearGradient9009-4"/><linearGradient id="linearGradient9025-5" x1="1184" x2="1184" y1="-405" y2="-533.035" gradientUnits="userSpaceOnUse" xlink:href="#linearGradient9009-4"/><linearGradient id="linearGradient9027-5" x1="1184" x2="1184" y1="-405" y2="-533.035" gradientUnits="userSpaceOnUse" xlink:href="#linearGradient9009-4"/><linearGradient id="linearGradient9029-7" x1="1184" x2="1184" y1="-405" y2="-533.035" gradientUnits="userSpaceOnUse" xlink:href="#linearGradient9009-4"/><linearGradient id="linearGradient9031-7" x1="1184" x2="1184" y1="-405" y2="-533.035" gradientUnits="userSpaceOnUse" xlink:href="#linearGradient9009-4"/><linearGradient id="linearGradient9033-0" x1="1184" x2="1184" y1="-405" y2="-533.035" gradientUnits="userSpaceOnUse" xlink:href="#linearGradient9009-4"/><linearGradient id="linearGradient9035-1" x1="1184" x2="1184" y1="-405" y2="-533.035" gradientUnits="userSpaceOnUse" xlink:href="#linearGradient9009-4"/><clipPath id="clipPath7691-3" clipPathUnits="userSpaceOnUse"><path id="path7693-5" d="M 1126,118.99999 A 110,110 0 0 1 1346,119" transform="matrix(1.4545455,0,0,1.4545455,-622.81822,-83.09091)" style="color:#000;fill:#c5c5d7;fill-opacity:1;fill-rule:nonzero;stroke:none;stroke-width:4;marker:none;visibility:visible;display:inline;overflow:visible;enable-background:accumulate"/></clipPath><filter id="filter7759-1" color-interpolation-filters="sRGB"><feGaussianBlur id="feGaussianBlur7761-6" stdDeviation="5.813"/></filter><linearGradient id="linearGradient7878-19" x1="1097" x2="1097" y1="942.362" y2="802.63" gradientTransform="translate(-790,-742.36218)" gradientUnits="userSpaceOnUse" xlink:href="#linearGradient7872-3"/><linearGradient id="linearGradient7872-3"><stop style="stop-color:#cbeea7;stop-opacity:1" id="stop7874-9" offset="0"/><stop style="stop-color:#cee8c1;stop-opacity:1" id="stop7876-7" offset="1"/></linearGradient><linearGradient id="linearGradient7878-93" x1="1097" x2="1097" y1="942.362" y2="802.63" gradientTransform="translate(30,0)" gradientUnits="userSpaceOnUse" xlink:href="#linearGradient7872-09"/><linearGradient id="linearGradient7872-09"><stop style="stop-color:#cbeea7;stop-opacity:1" id="stop7874-8" offset="0"/><stop style="stop-color:#cee8c1;stop-opacity:1" id="stop7876-9" offset="1"/></linearGradient><linearGradient id="linearGradient7878-5-6" x1="1097" x2="1097" y1="942.362" y2="802.63" gradientTransform="translate(30,0)" gradientUnits="userSpaceOnUse" xlink:href="#linearGradient7872-10-4"/><linearGradient id="linearGradient7872-10-4"><stop style="stop-color:#cbeea7;stop-opacity:1" id="stop7874-2-4" offset="0"/><stop style="stop-color:#cee8c1;stop-opacity:1" id="stop7876-5-1" offset="1"/></linearGradient><linearGradient id="linearGradient7781-5" x1="1224.219" x2="1224.219" y1="789.359" y2="942.362" gradientTransform="translate(30,0)" gradientUnits="userSpaceOnUse" xlink:href="#linearGradient7775-9"/><linearGradient id="linearGradient7775-9"><stop style="stop-color:#222;stop-opacity:1" id="stop7777-8" offset="0"/><stop style="stop-color:#adadc6;stop-opacity:0" id="stop7779-49" offset="1"/></linearGradient><linearGradient id="linearGradient14425" x1="1224.219" x2="1224.219" y1="789.359" y2="942.362" gradientTransform="translate(30,0)" gradientUnits="userSpaceOnUse" xlink:href="#linearGradient7775-9"/><radialGradient id="radialGradient14929" cx="1218.199" cy="124.603" r="110" fx="1218.199" fy="124.603" gradientTransform="matrix(8.9292362e-8,-1.09375,1.0937499,1.4609618e-6,1099.715,1451.4055)" gradientUnits="userSpaceOnUse" xlink:href="#linearGradient14931"/><linearGradient id="linearGradient14931"><stop id="stop14933" offset="0" style="stop-color:#ccf1ff;stop-opacity:0"/><stop style="stop-color:#ccf1ff;stop-opacity:0" id="stop14937" offset=".857"/><stop id="stop14935" offset="1" style="stop-color:#789afb;stop-opacity:1"/></linearGradient><radialGradient id="radialGradient14955" cx="1218.199" cy="124.603" r="110" fx="1218.199" fy="124.603" gradientTransform="matrix(8.9292362e-8,-1.09375,1.0937499,1.4609618e-6,1099.715,1451.4055)" gradientUnits="userSpaceOnUse" xlink:href="#linearGradient14931"/></defs><metadata id="metadata4141"/><g id="layer1" transform="translate(-820,-742.36218)"><g id="g14683"><path id="path8245" d="m 964.625,854.79968 a 4.0004,4.0004 0 0 0 -3.84375,3.5625 4.0004,4.0004 0 0 0 -2.15625,-0.5625 4.0004,4.0004 0 0 0 -3.78125,4.90625 c 0,0 0.5454,2.1828 2.1875,5.1875 1.6421,3.0047 4.45773,7.22288 9.28125,12.4375 a 4.0025627,4.0025627 0 0 0 6.9375,-2.25 4.0025627,4.0025627 0 0 0 3.75,0.125 c 0.0733,0.22356 0.14387,0.47118 0.21875,0.6875 a 4.0025627,4.0025627 0 1 0 7.5625,-2.625 c -1.9723,-5.69775 -3.8125,-17.53125 -3.8125,-17.53125 a 4.0004,4.0004 0 0 0 -3.84375,-3.46875 4.0004,4.0004 0 0 0 -4.09375,4.65625 c 0,0 0.49861,3.30382 1.3125,7.46875 -2.08696,-2.64336 -3.45886,-4.78178 -4.3125,-6.34375 -1.2954,-2.3703 -1.375,-3.0625 -1.375,-3.0625 a 4.0004,4.0004 0 0 0 -4.03125,-3.1875 z" style="font-size:medium;font-style:normal;font-variant:normal;font-weight:400;font-stretch:normal;text-indent:0;text-align:start;text-decoration:none;line-height:normal;letter-spacing:normal;word-spacing:normal;text-transform:none;direction:ltr;block-progression:tb;writing-mode:lr-tb;text-anchor:start;baseline-shift:baseline;color:#000;fill:#5e74ac;fill-opacity:1;stroke:none;stroke-width:8;marker:none;visibility:visible;display:inline;overflow:visible;filter:url(#filter7542-4-8-0);enable-background:accumulate;font-family:Sans;-inkscape-font-specification:Sans"/><g style="fill:#7693dc;fill-opacity:1" id="g8240" transform="translate(31,2)"><path id="path8234" d="m 922.625,10.4375 a 4.0004,4.0004 0 0 0 -3.78125,4.90625 c 0,0 0.5454,2.1828 2.1875,5.1875 1.40985,2.579729 3.70701,6.049888 7.375,10.28125 0.11178,0.128944 0.19812,0.275904 0.3125,0.40625 0.11345,0.137051 0.22397,0.284764 0.34375,0.40625 0.15485,0.157057 0.25496,0.252929 0.40625,0.40625 0.28133,0.31274 0.54746,0.61719 0.84375,0.9375 a 4.0025627,4.0025627 0 0 0 0.59375,0.53125 4.0025627,4.0025627 0 0 0 0.0625,0.03125 c 5.98699,6.043061 9.08242,9.018781 11.6875,10.90625 5.06802,3.671953 10.79446,9.23077 29.46875,15.59375 18.67429,6.36298 46.9429,9.60422 85.4688,-0.71875 2.5788,-0.63185 4.8672,-2.33956 6.2187,-4.625 1.3516,-2.28544 1.7513,-8.09198 1.0625,-10.65625 -0.6888,-2.56427 -2.4352,-4.82439 -4.75,-6.125 -2.3148,-1.30061 -5.1703,-1.65166 -7.7188,-0.90625 -35.1951,9.43054 -57.91701,6.16915 -72.81245,1.09375 C 964.69831,33.01835 961.4304,31.785386 957.34375,26.875 951.9003,20.33433 948.89393,16 942.5625,16 l -8.125,0 c -2.53697,0 -4.35949,0.782327 -5.625,2 -0.27387,-0.453136 -0.57102,-0.927833 -0.78125,-1.3125 -1.2954,-2.3703 -1.375,-3.0625 -1.375,-3.0625 A 4.0004,4.0004 0 0 0 922.625,10.4375 z" transform="translate(-1,850.36218)" style="font-size:medium;font-style:normal;font-variant:normal;font-weight:400;font-stretch:normal;text-indent:0;text-align:start;text-decoration:none;line-height:normal;letter-spacing:normal;word-spacing:normal;text-transform:none;direction:ltr;block-progression:tb;writing-mode:lr-tb;text-anchor:start;baseline-shift:baseline;color:#000;fill:#7693dc;fill-opacity:1;stroke:none;stroke-width:8;marker:none;visibility:visible;display:inline;overflow:visible;filter:url(#filter7542-4-8-0);enable-background:accumulate;font-family:Sans;-inkscape-font-specification:Sans"/></g><path id="path8245-3" d="M 934.625,2.4375 A 4.0004,4.0004 0 0 0 930.78125,6 4.0004,4.0004 0 0 0 928.625,5.4375 a 4.0004,4.0004 0 0 0 -3.78125,4.90625 c 0,0 0.1099,0.36161 0.28125,0.875 a 4.0004,4.0004 0 0 0 -2.5,-0.78125 4.0004,4.0004 0 0 0 -3.78125,4.90625 c 0,0 0.5454,2.1828 2.1875,5.1875 1.40985,2.57973 3.70701,6.04989 7.375,10.28125 0.11178,0.12894 0.19812,0.2759 0.3125,0.40625 0.11345,0.13705 0.22397,0.28476 0.34375,0.40625 0.15485,0.15706 0.25496,0.25293 0.40625,0.40625 0.28133,0.31274 0.54746,0.61719 0.84375,0.9375 a 4.0025627,4.0025627 0 0 0 0.59375,0.53125 4.0025627,4.0025627 0 0 0 0.0625,0.03125 c 5.98699,6.04306 9.08242,9.01878 11.6875,10.90625 5.06802,3.67195 10.79446,9.23077 29.46875,15.59375 18.67429,6.36298 46.9429,9.60422 85.4688,-0.71875 2.5788,-0.63185 4.8672,-2.33956 6.2187,-4.625 1.3516,-2.28544 1.7513,-8.09198 1.0625,-10.65625 -0.6888,-2.56427 -2.4352,-4.82439 -4.75,-6.125 -2.3148,-1.30061 -5.1702,-1.65166 -7.7188,-0.90625 -35.1951,9.43054 -57.91701,6.16915 -72.81245,1.09375 -14.89544,-5.0754 -18.16335,-6.30836 -22.25,-11.21875 -0.96094,-1.154633 -1.78426,-2.150837 -2.625,-3.15625 -1.9499,-5.760197 -3.75,-17.34375 -3.75,-17.34375 A 4.0004,4.0004 0 0 0 947.125,2.90625 4.0004,4.0004 0 0 0 943.03125,7.5625 c 0,0 0.49861,3.30383 1.3125,7.46875 -2.08696,-2.64336 -3.45886,-4.78178 -4.3125,-6.34375 -1.2954,-2.3703 -1.375,-3.0625 -1.375,-3.0625 A 4.0004,4.0004 0 0 0 934.625,2.4375 z" clip-path="url(#clipPath8987)" transform="translate(30.000004,852.36218)" style="font-size:medium;font-style:normal;font-variant:normal;font-weight:400;font-stretch:normal;text-indent:0;text-align:start;text-decoration:none;line-height:normal;letter-spacing:normal;word-spacing:normal;text-transform:none;direction:ltr;block-progression:tb;writing-mode:lr-tb;text-anchor:start;baseline-shift:baseline;opacity:.1;color:#000;fill:#fff;fill-opacity:1;stroke:none;stroke-width:8;marker:none;visibility:visible;display:inline;overflow:visible;filter:url(#filter7542-4-8-0);enable-background:accumulate;font-family:Sans;-inkscape-font-specification:Sans"/><path style="color:#000;fill:#222;fill-opacity:1;fill-rule:nonzero;stroke:none;stroke-width:1;marker:none;visibility:visible;display:inline;overflow:visible;enable-background:accumulate" id="path8139-4-6-3-6" d="m 975.26569,833.36219 c -4.1421,0 -7.5,3.35787 -7.5,7.5 0,4.14215 7.5,10.5 7.5,10.5 0,0 7.5,-6.35785 7.5,-10.5 0,-4.14213 -3.3579,-7.5 -7.5,-7.5 z m 0.2343,4.5 c 1.6569,0 3,1.34315 3,3 0,1.65686 -1.3431,3 -3,3 -1.65675,0 -3,-1.34314 -3,-3 0,-1.65685 1.34325,-3 3,-3 z"/><path id="path8216" d="m 955,25 a 10,5 0 1 1 -20,0 10,5 0 1 1 20,0 z" transform="matrix(0.75,0,0,0.5,258.75,862.36218)" style="color:#000;fill:#3f4767;fill-opacity:.39215686;fill-rule:nonzero;stroke:none;stroke-width:8;marker:none;visibility:visible;display:inline;overflow:visible;filter:url(#filter13004);enable-background:accumulate"/><path style="color:#000;fill:#222;fill-opacity:1;fill-rule:nonzero;stroke:none;stroke-width:1;marker:none;visibility:visible;display:inline;overflow:visible;enable-background:accumulate" id="path5387-6-5-6" d="m 983.24999,851.86219 c -2.07107,0 -3.75,1.67891 -3.75,3.75001 0,0.37775 0.0679,0.73424 0.17187,1.07809 l -9.34375,9.34376 c -0.34388,-0.1039 -0.70033,-0.17186 -1.07812,-0.17186 -2.07107,0 -3.74999,1.6789 -3.74999,3.75 0,2.07104 1.67892,3.75 3.74999,3.75 2.07107,0 3.75,-1.67896 3.75,-3.75 0,-0.3778 -0.068,-0.73425 -0.17188,-1.07815 l 9.34375,-9.34375 c 0.34388,0.10395 0.70034,0.1719 1.07813,0.1719 2.07106,0 3.75,-1.67895 3.75,-3.74999 0,-2.0711 -1.67894,-3.75001 -3.75,-3.75001 z m 0,2.25001 c 0.82842,0 1.5,0.67155 1.5,1.5 0,0.8284 -0.67158,1.5 -1.5,1.5 -0.82843,0 -1.5,-0.6716 -1.5,-1.5 0,-0.82845 0.67157,-1.5 1.5,-1.5 z m -14,13.99999 c 0.82843,0 1.5,0.67155 1.5,1.5 0,0.8284 -0.67157,1.5 -1.5,1.5 -0.82842,0 -1.5,-0.6716 -1.5,-1.5 0,-0.82845 0.67158,-1.5 1.5,-1.5 z"/><path style="color:#000;fill:#222;fill-opacity:1;fill-rule:nonzero;stroke:none;stroke-width:1;marker:none;visibility:visible;display:inline;overflow:visible;enable-background:accumulate" id="path5288-4-8-0-3" d="m 945.40433,849.14391 c -1.7936,1.03555 -2.40813,3.32901 -1.3726,5.12261 0.71815,1.24387 2.04645,1.91607 3.3883,1.8687 l 3.43751,5.95394 c -0.71196,1.13839 -0.79395,2.62483 -0.0758,3.8687 1.03552,1.79358 3.32899,2.40813 5.12259,1.37259 1.24386,-0.71814 1.91607,-2.04646 1.86871,-3.3883 l 5.95391,-3.43749 c 1.1384,0.71193 2.62484,0.79394 3.86871,0.0758 1.7936,-1.03553 2.40812,-3.329 1.37259,-5.12259 -0.71815,-1.24387 -2.04643,-1.91608 -3.38828,-1.86871 l -3.4375,-5.95392 c 0.71195,-1.1384 0.79393,-2.62484 0.0758,-3.86871 -1.03554,-1.7936 -3.32899,-2.40813 -5.12259,-1.3726 -1.25899,0.72688 -1.92459,2.07817 -1.85879,3.43672 l -0.10461,0.006 -5.8592,3.38282 c -1.13839,-0.71195 -2.62484,-0.79395 -3.8687,-0.0758 z m 1.125,1.94857 c 0.71744,-0.41421 1.63482,-0.1684 2.04904,0.54904 0.4142,0.71743 0.1684,1.63482 -0.54904,2.04904 -0.71744,0.41421 -1.63482,0.16839 -2.04904,-0.54905 -0.41422,-0.71744 -0.16841,-1.63482 0.54904,-2.04903 z m 11.69133,-6.75 c 0.71745,-0.41422 1.63483,-0.16841 2.04904,0.54904 0.41421,0.71744 0.1684,1.63482 -0.54904,2.04904 -0.71743,0.4142 -1.63482,0.16839 -2.04904,-0.54904 -0.41421,-0.71744 -0.16839,-1.63483 0.54904,-2.04904 z m -7.19762,7.90833 5.95392,-3.4375 c 0.63528,0.3973 1.38559,0.59835 2.13442,0.57191 l 3.4375,5.95393 c -0.39733,0.63527 -0.59837,1.38558 -0.57192,2.13442 l -5.95392,3.43749 c -0.6353,-0.39733 -1.3856,-0.59836 -2.13441,-0.57191 l -3.43751,-5.95393 c 0.39731,-0.63529 0.59835,-1.38559 0.57192,-2.13441 z m 2.25629,10.53301 c 0.71744,-0.41421 1.63481,-0.16842 2.04904,0.54904 0.4142,0.71741 0.16839,1.63481 -0.54904,2.04902 -0.71744,0.41422 -1.63484,0.16839 -2.04904,-0.54903 -0.41423,-0.71745 -0.1684,-1.63482 0.54904,-2.04903 z m 11.69133,-6.75 c 0.71744,-0.41421 1.63482,-0.16842 2.04904,0.54904 0.4142,0.71741 0.1684,1.63482 -0.54904,2.04903 -0.71744,0.41421 -1.63483,0.16838 -2.04904,-0.54903 -0.41422,-0.71746 -0.16839,-1.63483 0.54904,-2.04904 z"/></g><g id="g14241" transform="translate(-3.0000006e-6,5.0000006e-7)"><path id="path7176" d="M 1126,118.99999 C 1126,58.248672 1175.2487,8.9999972 1236,9 c 60.7513,2.8e-6 110,49.248679 110,110" transform="matrix(1.4545455,0,0,1.4545455,-592.81822,769.27127)" style="color:#000;fill:url(#linearGradient7773-0);fill-opacity:1;fill-rule:nonzero;stroke:none;stroke-width:4;marker:none;visibility:visible;display:inline;overflow:visible;enable-background:accumulate"/><flowRoot style="font-size:30px;font-style:normal;font-variant:normal;font-weight:700;font-stretch:normal;text-indent:0;text-align:start;text-decoration:none;line-height:125%;letter-spacing:0;word-spacing:0;text-transform:none;direction:ltr;block-progression:tb;writing-mode:lr-tb;text-anchor:start;baseline-shift:baseline;opacity:.25;color:#000;fill:url(#linearGradient9015-4);fill-opacity:1;fill-rule:nonzero;stroke:none;stroke-width:4;marker:none;visibility:visible;display:inline;overflow:visible;enable-background:accumulate;font-family:Menlo;-inkscape-font-specification:Menlo Bold" id="flowRoot8523" clip-path="url(#clipPath8573-8)" transform="translate(19,1303.3622)" xml:space="preserve"><flowRegion style="fill:url(#linearGradient9021);fill-opacity:1" id="flowRegion8525"><rect style="font-style:normal;font-variant:normal;font-weight:700;font-stretch:normal;fill:url(#linearGradient9019);fill-opacity:1;stroke:none;font-family:Menlo;-inkscape-font-specification:Menlo Bold" id="rect8527" width="580" height="303" x="1021" y="-529"/></flowRegion><flowPara style="fill:url(#linearGradient9023-3);fill-opacity:1" id="flowPara8529">101010101010100011</flowPara><flowPara style="fill:url(#linearGradient9025-5);fill-opacity:1" id="flowPara8531">100010101010011010</flowPara><flowPara style="fill:url(#linearGradient9027-5);fill-opacity:1" id="flowPara8533">101010101001010110</flowPara><flowPara style="fill:url(#linearGradient9029-7);fill-opacity:1" id="flowPara8535">010111010101011010</flowPara><flowPara style="fill:url(#linearGradient9031-7);fill-opacity:1" id="flowPara8537">000101010000110001</flowPara><flowPara style="fill:url(#linearGradient9033-0);fill-opacity:1" id="flowPara8617">101010110010101101</flowPara><flowPara style="fill:url(#linearGradient9035-1);fill-opacity:1" id="flowPara8619">101010111010101011</flowPara></flowRoot><path id="path7591" d="m 1174,-70 c -6.4317,0.0395 -12.7696,0.4728 -19,1.25 l 0,8.75 5,5 10,0 z m 40.25,4.84375 -0.031,0.15625 7.7812,9 5,0 3,-4 0,-0.28125 c -1.2872,-0.4713 -2.5726,-0.93607 -3.875,-1.375 -0.041,-0.0138 -0.084,-0.01755 -0.125,-0.03125 -1.2576,-0.42471 -2.5104,-0.82436 -3.7812,-1.21875 -1.1271,-0.34978 -2.2683,-0.70623 -3.4063,-1.03125 -0.1871,-0.0531 -0.3752,-0.10379 -0.5625,-0.15625 -1.079,-0.30374 -2.1607,-0.59432 -3.25,-0.875 -0.2478,-0.0638 -0.5017,-0.1249 -0.75,-0.1875 z m -95,5.15625 c -39.4401,14.6674 -71.5429,44.43079 -89.25,82.28125 L 1030,35 l 15,15 0,10 5,0 5,5 0,5 -5,5 0,15 105,0 -10,-10 -20,0 -5,-5 0,-5 -40,-25 -10,0 -10,10 -10,0 0,-15 -5,-5 5,-5 0,-5 -5,0 -10,0 10,-20 15,-5 0,15 5,0 5,-5 0,-10 25,-30 5,0 40,-15 0,-10 -5,-5 z m 91.75,5 6,8 7,0 -8,-8 z m 33.5,0.84375 -2.375,4.15625 -12.125,0 -5.7812,10 5.7812,10 -10,0.3125 -4.4375,4.6875 0,5 8.6563,5 10.7812,0 8.6562,-15 6.3438,0 10,8 1.3438,5 3.6562,0 0,-8 5,3 5,2 5,0 6,-6 -9,-10 -2.125,1 c -0.029,-0.0234 -0.064,-0.0392 -0.094,-0.0625 -0.3359,-0.26835 -0.6619,-0.54681 -1,-0.8125 -0.8033,-0.63134 -1.6219,-1.25882 -2.4374,-1.875 -0.2074,-0.1566 -0.417,-0.31314 -0.625,-0.46875 -0.9966,-0.74524 -1.9858,-1.46514 -3,-2.1875 -0.031,-0.0218 -0.063,-0.0408 -0.094,-0.0625 -0.1103,-0.0784 -0.2332,-0.14058 -0.3438,-0.21875 -0.9382,-0.66399 -1.8596,-1.35587 -2.8124,-2 -0.1442,-0.0974 -0.2931,-0.18434 -0.4376,-0.28125 -0.9169,-0.61558 -1.8508,-1.21555 -2.7812,-1.8125 -0.3292,-0.21107 -0.6691,-0.41628 -1,-0.625 -1.2672,-0.79993 -2.5216,-1.57877 -3.8125,-2.34375 -1.0622,-0.62947 -2.1409,-1.23835 -3.2187,-1.84375 -0.538,-0.302 -1.0834,-0.6103 -1.625,-0.90625 -0.1142,-0.0623 -0.2296,-0.12545 -0.3438,-0.1875 -0.9035,-0.49081 -1.8049,-0.9637 -2.7188,-1.4375 -1.3366,-0.69309 -2.6725,-1.3751 -4.0312,-2.03125 z M 1283,-30 l -3,10 5,5 10,0 0,10 -15,0 0,5 -10,0 -10,-10 -20,0 -5,0 -10,0 -5,5 0,10 -5,0 -10,20 0,5 5,5 0,15 20,20 20,0 5,-5 10,0 10,10 0,10 3.3438,5 56.6562,0 c 0,-44.18275 -17.9207,-84.17069 -46.875,-113.125 -0.6292,-0.62919 -1.2668,-1.25631 -1.9062,-1.875 z m -78,-20 3,5 5,0 -3,-5 z" clip-path="url(#clipPath7691-3)" transform="translate(30,852.36218)" style="opacity:.25;color:#000;fill:#222;fill-opacity:1;fill-rule:nonzero;stroke:none;stroke-width:4;marker:none;visibility:visible;display:inline;overflow:visible;filter:url(#filter7759-1);enable-background:accumulate"/><path id="path7176-41" d="M 424.25,44.84375 424.21875,45 432,54 l 5,0 3,-4 0,-0.28125 c -1.2873,-0.4713 -2.5726,-0.93607 -3.875,-1.375 -0.041,-0.0138 -0.084,-0.01755 -0.125,-0.03125 -1.2576,-0.42471 -2.51045,-0.82436 -3.78125,-1.21875 -1.1271,-0.34978 -2.26825,-0.70623 -3.40625,-1.03125 -0.1871,-0.0531 -0.3752,-0.10379 -0.5625,-0.15625 -1.079,-0.30374 -2.1607,-0.59432 -3.25,-0.875 -0.2478,-0.0638 -0.5018,-0.1249 -0.75,-0.1875 z M 421,55 l 6,8 7,0 -8,-8 -5,0 z M 454.5,55.875 452.125,60 442.53125,60 440,60 434.21875,70 440,80 430,80.3125 425.5625,85 l 0,5 8.65625,5 7.34375,0 3.4375,0 8.65625,-15 6.34375,0 10,8 1.34375,5 3.65625,0 0,-8 5,3 5,2 5,0 5,5 10,0 0,10 -15,0 0,5 -10,0 -10,-10 -20,0 -5,0 -4.375,0 -5.625,0 -5,5 0,10 -5,0 -10,20 0,5 5,5 0,10.9375 0,4.0625 20,20 20,0 5,-5 10,0 10,10 0,10 3.34375,5 51.65625,0 5,0 c 0,-51.43766 -24.2837,-97.1986 -62,-126.46875 -0.1548,-0.11296 -0.32195,-0.23072 -0.46875,-0.34375 -0.018,-0.014 -0.0445,-0.01725 -0.0625,-0.03125 -0.7174,-0.55233 -1.42915,-1.11612 -2.15625,-1.65625 -0.053,-0.0397 -0.10255,-0.0854 -0.15625,-0.125 -0.06,-0.0444 -0.13,-0.0771 -0.1875,-0.125 -0.023,-0.0187 -0.0425,-0.0403 -0.0625,-0.0625 -0.023,-0.0174 -0.0395,-0.0451 -0.0625,-0.0625 -0.7324,-0.5397 -1.47745,-1.07211 -2.21875,-1.59375 -0.019,-0.0133 -0.0445,-0.01795 -0.0625,-0.03125 -0.7603,-0.5345 -1.51065,-1.06633 -2.28125,-1.59375 -0.8253,-0.56504 -1.6633,-1.10637 -2.5,-1.65625 -1.673,-1.09976 -3.37775,-2.18082 -5.09375,-3.21875 -0.858,-0.51897 -1.72545,-1.02804 -2.59375,-1.53125 -0.8686,-0.50321 -1.744,-1.0092 -2.625,-1.5 -0.8811,-0.49079 -1.76755,-0.96639 -2.65625,-1.4375 -0.8887,-0.47111 -1.75755,-0.92024 -2.65625,-1.375 C 456.27855,56.74322 455.387,56.3035 454.5,55.875 z M 415,60 l 3,5 5,0 -3,-5 -5,0 z" transform="translate(820,742.36218)" style="color:#000;fill:url(#linearGradient7878-19);fill-opacity:1;fill-rule:nonzero;stroke:none;stroke-width:4;marker:none;visibility:visible;display:inline;overflow:visible;enable-background:accumulate"/><path id="path7176-3-8-6" d="m 1285,897.36218 -15,15 -20,0 10,10 20,0 5,-5 10,0 10,10 0,10 5,0 10,-10 15.9688,0 0,-15 -25.9688,-15 -25,0 z" style="opacity:.15;color:#000;fill:#9ed184;fill-opacity:1;fill-rule:nonzero;stroke:none;stroke-width:4;marker:none;visibility:visible;display:inline;overflow:visible;enable-background:accumulate"/><path id="path7176-4" d="m 1149.25,792.36218 c -39.4401,14.6674 -71.5429,44.43079 -89.25,82.28125 l 0,12.71875 15,15 0,10 5,0 5,5 0,5 -5,5 0,15.00002 105,0 -10,-10.00002 -20,0 -5,-5 0,-5 -40,-25 -10,0 -10,10 -10,0 0,-15 -5,-5 5,-5 0,-5 -5,0 -10,0 10,-20 15,-5 0,15 5,0 5,-5 0,-10 25,-30 5,0 40,-15 0,-10 -5,-5 z" style="color:#000;fill:url(#linearGradient7878-93);fill-opacity:1;fill-rule:nonzero;stroke:none;stroke-width:4;marker:none;visibility:visible;display:inline;overflow:visible;enable-background:accumulate"/><path id="path7176-9" d="m 1204,782.36218 c -6.4317,0.0395 -12.7696,0.4728 -19,1.25 l 0,8.75 5,5 10,0 4,-15 z" style="color:#000;fill:url(#linearGradient7878-5-6);fill-opacity:1;fill-rule:nonzero;stroke:none;stroke-width:4;marker:none;visibility:visible;display:inline;overflow:visible;enable-background:accumulate"/><path id="path9199" d="m 1100,927.36218 5,0 15,5 0,10 -30,0 z" style="opacity:.15;color:#000;fill:#9ed184;fill-opacity:1;fill-rule:nonzero;stroke:none;stroke-width:4;marker:none;visibility:visible;display:inline;overflow:visible;enable-background:accumulate"/><path id="path7176-4-2" d="m 1130,909.86218 0,7.5 10,5 0,10 -10,10 55,0 -10,-10 -20,0 -5,-5 0,-5 -20,-12.5 z" style="opacity:.15;color:#000;fill:#9ed184;fill-opacity:1;fill-rule:nonzero;stroke:none;stroke-width:4;marker:none;visibility:visible;display:inline;overflow:visible;enable-background:accumulate"/><path id="path7176-4-7" d="m 1149.25,792.36218 c -5.8774,2.18576 -11.5968,4.72945 -17.125,7.5625 l 12.875,7.4375 0,9.375 25,-9.375 0,-10 -5,-5 -15.75,0 z" style="opacity:.15;color:#000;fill:#9ed184;fill-opacity:1;fill-rule:nonzero;stroke:none;stroke-width:4;marker:none;visibility:visible;display:inline;overflow:visible;enable-background:accumulate"/><path id="path7176-4-76" d="m 1115,810.08093 c -13.1826,8.9817 -24.9493,19.86488 -34.9063,32.28125 l 14.9063,0 20,-20 0,-12.28125 z" style="opacity:.15;color:#000;fill:#9ed184;fill-opacity:1;fill-rule:nonzero;stroke:none;stroke-width:4;marker:none;visibility:visible;display:inline;overflow:visible;enable-background:accumulate"/><path id="path7176-2" d="m 1260.4688,792.26843 c 13.3096,49.6722 -0.4537,112.82556 -27.6876,150.09372 l 132.2188,0 c 0,-68.85715 -43.5157,-127.53233 -104.5312,-150.09372 z" style="opacity:.25;color:#000;fill:url(#linearGradient14425);fill-opacity:1;fill-rule:nonzero;stroke:none;stroke-width:4;marker:none;visibility:visible;display:inline;overflow:visible;enable-background:accumulate"/></g><path style="color:#000;fill:#9ed184;fill-opacity:1;fill-rule:nonzero;stroke:none;stroke-width:4;marker:none;visibility:visible;display:inline;overflow:visible;enable-background:accumulate;opacity:.14999999999999999" id="path7176-3-8" d="m 1205,897.36218 -15,15 -20,0 10,10 20,0 5,-5 10,0 10,10 0,10 5,0 10,-10 15.9688,0 0,-15 -25.9688,-15 -25,0 z"/><g id="g9572" transform="translate(80,170)"><g id="g9543"><path style="color:#000;fill:url(#linearGradient9564);fill-opacity:1;stroke:none;stroke-width:4;marker:none;visibility:visible;display:inline;overflow:visible;enable-background:accumulate" id="path7007" d="m 1135,942.36218 c -5,40 -35,70.00002 -35,70.00002 l -25,-25.00002 50,-45 z"/><path style="font-size:medium;font-style:normal;font-variant:normal;font-weight:400;font-stretch:normal;text-indent:0;text-align:start;text-decoration:none;line-height:normal;letter-spacing:normal;word-spacing:normal;text-transform:none;direction:ltr;block-progression:tb;writing-mode:lr-tb;text-anchor:start;baseline-shift:baseline;color:#000;fill:url(#linearGradient9566);fill-opacity:1;fill-rule:nonzero;stroke:none;stroke-width:5.81818199;marker:none;visibility:visible;display:inline;overflow:visible;enable-background:accumulate;font-family:Sans;-inkscape-font-specification:Sans" id="path6371" d="m 1129.4062,915.20593 a 12.0012,12.0012 0 0 0 -10.0312,4.96875 c -23.0888,31.04416 -73.5,61.84375 -73.5,61.84375 a 12.007739,12.007739 0 0 0 -0.8125,0.5625 12.007739,12.007739 0 0 0 -0.1875,0.125 L 1031,990.61218 a 4.0175701,4.0175701 0 1 0 4,6.96875 l 5.2188,-2.96875 a 12.007739,12.007739 0 0 0 17.9062,8.06252 c 0,0 52.3016,-30.24187 80.5,-68.15627 a 12.0012,12.0012 0 0 0 -9.2188,-19.3125 z"/><path id="path8280" d="m 1129.4062,915.20593 a 12.0012,12.0012 0 0 0 -10.0312,4.96875 c -23.0888,31.04416 -73.5,61.84375 -73.5,61.84375 a 12.007739,12.007739 0 0 0 -0.8125,0.5625 12.007739,12.007739 0 0 0 -0.1875,0.125 L 1031,990.61218 a 4.0175701,4.0175701 0 1 0 4,6.96875 l 5.2188,-2.96875 a 12.007739,12.007739 0 0 0 17.9062,8.06252 c 0,0 52.3016,-30.24187 80.5,-68.15627 a 12.0012,12.0012 0 0 0 -9.2188,-19.3125 z" style="font-size:medium;font-style:normal;font-variant:normal;font-weight:400;font-stretch:normal;text-indent:0;text-align:start;text-decoration:none;line-height:normal;letter-spacing:normal;word-spacing:normal;text-transform:none;direction:ltr;block-progression:tb;writing-mode:lr-tb;text-anchor:start;baseline-shift:baseline;color:#000;fill:url(#linearGradient9568);fill-opacity:1;fill-rule:nonzero;stroke:none;stroke-width:5.81818199;marker:none;visibility:visible;display:inline;overflow:visible;enable-background:accumulate;font-family:Sans;-inkscape-font-specification:Sans"/><flowRoot id="flowRoot8523-6" clip-path="url(#clipPath8675)" transform="translate(-61.000003,1303.3622)" xml:space="preserve" style="font-size:30px;font-style:normal;font-variant:normal;font-weight:700;font-stretch:normal;text-indent:0;text-align:start;text-decoration:none;line-height:125%;letter-spacing:0;word-spacing:0;text-transform:none;direction:ltr;block-progression:tb;writing-mode:lr-tb;text-anchor:start;baseline-shift:baseline;opacity:.25;color:#000;fill:#fff;fill-opacity:1;fill-rule:nonzero;stroke:none;stroke-width:4;marker:none;visibility:visible;display:inline;overflow:visible;enable-background:accumulate;font-family:Menlo;-inkscape-font-specification:Menlo Bold"><flowRegion id="flowRegion8525-6"><rect id="rect8527-8" width="580" height="303" x="1021" y="-529" style="font-style:normal;font-variant:normal;font-weight:700;font-stretch:normal;fill:#fff;stroke:none;font-family:Menlo;-inkscape-font-specification:Menlo Bold"/></flowRegion><flowPara id="flowPara8529-8">101010101010100011</flowPara><flowPara id="flowPara8531-5">100010101010011010</flowPara><flowPara id="flowPara8533-5">101010101001010110</flowPara><flowPara id="flowPara8535-9">010111010101011010</flowPara><flowPara id="flowPara8537-3">000101010000110001</flowPara><flowPara id="flowPara8617-9">101010110010101101</flowPara><flowPara id="flowPara8619-0">101010111010101011</flowPara></flowRoot></g><rect id="rect9570" width="130" height="110" x="1020" y="902.362" style="opacity:.15;color:#000;fill:none;stroke:none;stroke-width:4;marker:none;visibility:visible;display:inline;overflow:visible;enable-background:accumulate"/></g><path style="color:#000;fill:none;stroke:#222;stroke-width:4;stroke-linecap:round;stroke-linejoin:round;stroke-opacity:1;marker:none;visibility:visible;display:inline;overflow:visible;enable-background:accumulate;opacity:.5;stroke-miterlimit:4;stroke-dasharray:none;stroke-dashoffset:0" id="path8488" d="m 1142,882.36218 c 0,0 3,2 8,2 5,0 8,-2 8,-2"/><path id="path8131-0" d="m 1305,17.5 a 2.5,2.5 0 1 1 -5,0 2.5,2.5 0 1 1 5,0 z" transform="matrix(2,0,0,2,-1441,832.36218)" style="opacity:.5;color:#000;fill:#222;fill-opacity:1;stroke:none;stroke-width:8;marker:none;visibility:visible;display:inline;overflow:visible;enable-background:accumulate"/><path id="path8157-4" d="m 1305,17.5 a 2.5,2.5 0 1 1 -5,0 2.5,2.5 0 1 1 5,0 z" transform="matrix(2,0,0,2,-1467,832.36218)" style="opacity:.5;color:#000;fill:#222;fill-opacity:1;stroke:none;stroke-width:8;marker:none;visibility:visible;display:inline;overflow:visible;enable-background:accumulate"/><path id="path7176-1" d="M 1126,118.99999 A 110,110 0 0 1 1346,119" transform="matrix(1.5000002,0,0,1.5,-649.00018,763.86218)" style="color:#000;fill:url(#radialGradient14955);fill-opacity:1;fill-rule:nonzero;stroke:none;stroke-width:4;marker:none;visibility:visible;display:inline;overflow:visible;enable-background:accumulate"/></g><g id="layer2" transform="translate(-820,110)" style="display:none"><image id="image7297" width="381" height="361.129" x="967.5" y="-104.565" xlink:href="file:///Users/saman/Desktop/Screen%20Shot%202013-07-30%20at%204.21.02%20PM.png" style="opacity:.25"/></g></svg>